<svg width="1823" height="475" viewBox="0 0 1823 475" fill="none" xmlns="http://www.w3.org/2000/svg">
<g clip-path="url(#clip0_1_104)">
<path d="M389.59 211.2H252.59C244.2 211.2 237.4 218 237.4 226.39C237.4 234.78 244.2 241.58 252.59 241.58H359.21C367.6 241.58 374.4 248.38 374.4 256.77V350.14C374.4 359.55 370.48 368.58 363.49 374.89C328.48 406.46 283.67 424.44 237.4 424.44C135.55 424.44 52.16 340.46 52.16 237.41C52.16 134.36 135.55 50.38 237.4 50.38C278.94 50.38 317.63 63.71 350.9 88.68C357.5 93.63 366.84 92.4 371.9 85.88C377.03 79.26 375.82 69.69 369.15 64.62C330.91 35.61 285.38 20 237.4 20C114.9 20 15.48 122.27 20.16 245.78C24.52 360.75 119.17 453.11 234.21 454.79C293.27 455.65 347.03 432.64 386.7 395.34C398.25 384.48 404.78 369.32 404.78 353.47V226.39C404.78 218 397.98 211.2 389.59 211.2V211.2Z" fill="#1F6A5D"/>
<path d="M237.4 111.13C265.39 111.13 289.32 118.8 314.69 136.49C321.3 141.1 330.38 139.63 335.31 133.26C340.64 126.38 339.09 116.49 332 111.45C303.93 91.5 272.01 80.75 237.4 80.75C153.42 80.75 84.32 151.63 84.32 237.4C84.32 323.17 153.41 394.05 237.4 394.05C270.99 394.05 305.53 382.12 334.2 359.54C340.41 354.65 344.02 347.16 344.02 339.25V287.14C344.02 278.75 337.22 271.95 328.83 271.95H252.59C244.2 271.95 237.4 278.75 237.4 287.14C237.4 295.53 244.2 302.33 252.59 302.33H298.45C306.84 302.33 313.64 309.13 313.64 317.52V337.47C289.22 357.13 263.01 363.68 237.4 363.68C170.69 363.68 116.49 309.48 116.49 237.41C116.49 165.34 170.69 111.14 237.4 111.14V111.13Z" fill="#1F6A5D"/>
</g>
<g clip-path="url(#clip1_1_104)">
<path d="M1088.59 211.2H951.59C943.2 211.2 936.4 218 936.4 226.39C936.4 234.78 943.2 241.58 951.59 241.58H1058.21C1066.6 241.58 1073.4 248.38 1073.4 256.77V350.14C1073.4 359.55 1069.48 368.58 1062.49 374.89C1027.48 406.46 982.67 424.44 936.4 424.44C834.55 424.44 751.16 340.46 751.16 237.41C751.16 134.36 834.55 50.38 936.4 50.38C977.94 50.38 1016.63 63.71 1049.9 88.68C1056.5 93.63 1065.84 92.4 1070.9 85.88C1076.03 79.26 1074.82 69.69 1068.15 64.62C1029.91 35.61 984.38 20 936.4 20C813.9 20 714.48 122.27 719.16 245.78C723.52 360.75 818.17 453.11 933.21 454.79C992.27 455.65 1046.03 432.64 1085.7 395.34C1097.25 384.48 1103.78 369.32 1103.78 353.47V226.39C1103.78 218 1096.98 211.2 1088.59 211.2Z" fill="black"/>
<path d="M936.4 111.13C964.39 111.13 988.32 118.8 1013.69 136.49C1020.3 141.1 1029.38 139.63 1034.31 133.26C1039.64 126.38 1038.09 116.49 1031 111.45C1002.93 91.5 971.01 80.75 936.4 80.75C852.42 80.75 783.32 151.63 783.32 237.4C783.32 323.17 852.41 394.05 936.4 394.05C969.99 394.05 1004.53 382.12 1033.2 359.54C1039.41 354.65 1043.02 347.16 1043.02 339.25V287.14C1043.02 278.75 1036.22 271.95 1027.83 271.95H951.59C943.2 271.95 936.4 278.75 936.4 287.14C936.4 295.53 943.2 302.33 951.59 302.33H997.45C1005.84 302.33 1012.64 309.13 1012.64 317.52V337.47C988.22 357.13 962.01 363.68 936.4 363.68C869.69 363.68 815.49 309.48 815.49 237.41C815.49 165.34 869.69 111.14 936.4 111.14V111.13Z" fill="black"/>
</g>
<g clip-path="url(#clip2_1_104)">
<path d="M1787.59 211.2H1650.59C1642.2 211.2 1635.4 218 1635.4 226.39C1635.4 234.78 1642.2 241.58 1650.59 241.58H1757.21C1765.6 241.58 1772.4 248.38 1772.4 256.77V350.14C1772.4 359.55 1768.48 368.58 1761.49 374.89C1726.48 406.46 1681.67 424.44 1635.4 424.44C1533.55 424.44 1450.16 340.46 1450.16 237.41C1450.16 134.36 1533.55 50.38 1635.4 50.38C1676.94 50.38 1715.63 63.71 1748.9 88.68C1755.5 93.63 1764.85 92.4 1769.9 85.88C1775.03 79.26 1773.82 69.69 1767.15 64.62C1728.91 35.61 1683.38 20 1635.4 20C1512.9 20 1413.48 122.27 1418.16 245.78C1422.52 360.75 1517.17 453.11 1632.21 454.79C1691.27 455.65 1745.03 432.64 1784.7 395.34C1796.25 384.48 1802.78 369.32 1802.78 353.47V226.39C1802.78 218 1795.98 211.2 1787.59 211.2Z" fill="white"/>
<path d="M1635.4 111.13C1663.39 111.13 1687.32 118.8 1712.69 136.49C1719.3 141.1 1728.38 139.63 1733.31 133.26C1738.64 126.38 1737.09 116.49 1730 111.45C1701.93 91.5 1670.01 80.75 1635.4 80.75C1551.42 80.75 1482.32 151.63 1482.32 237.4C1482.32 323.17 1551.41 394.05 1635.4 394.05C1668.99 394.05 1703.53 382.12 1732.2 359.54C1738.41 354.65 1742.02 347.16 1742.02 339.25V287.14C1742.02 278.75 1735.22 271.95 1726.83 271.95H1650.59C1642.2 271.95 1635.4 278.75 1635.4 287.14C1635.4 295.53 1642.2 302.33 1650.59 302.33H1696.45C1704.84 302.33 1711.64 309.13 1711.64 317.52V337.47C1687.22 357.13 1661.01 363.68 1635.4 363.68C1568.69 363.68 1514.49 309.48 1514.49 237.41C1514.49 165.34 1568.69 111.14 1635.4 111.14V111.13Z" fill="white"/>
</g>
<rect x="0.5" y="0.5" width="1821.78" height="473.81" rx="4.5" stroke="#9747FF" stroke-dasharray="10 5"/>
<defs>
<clipPath id="clip0_1_104">
<rect width="384.78" height="434.81" fill="white" transform="translate(20 20)"/>
</clipPath>
<clipPath id="clip1_1_104">
<rect width="384.78" height="434.81" fill="white" transform="translate(719 20)"/>
</clipPath>
<clipPath id="clip2_1_104">
<rect width="384.78" height="434.81" fill="white" transform="translate(1418 20)"/>
</clipPath>
</defs>
</svg>
